<svg width="28" height="16" fill="none" xmlns="http://www.w3.org/2000/svg"><path d="M26.39 12.62c-.82-.983-1.785-1.822-2.697-2.713-.824-.803-.876-1.27-.214-2.196.723-1.012 1.5-1.985 2.228-2.992.68-.941 1.376-1.88 1.734-3.007.228-.717.027-1.033-.708-1.159a2.27 2.27 0 00-.387-.023L21.984.525c-.537-.008-.834.226-1.024.702a26.688 26.688 0 01-.827 1.908c-.693 1.408-1.467 2.77-2.553 3.922-.24.254-.504.576-.904.443-.5-.182-.648-1.007-.64-1.286l-.004-5.034c-.097-.72-.257-1.04-.97-1.18H10.53c-.605 0-.908.235-1.23.613-.187.218-.243.36.14.433.752.142 1.175.629 1.288 1.383.18 1.205.167 2.415.063 3.624-.03.353-.09.706-.23 1.036-.22.518-.574.624-1.039.305-.42-.29-.716-.697-1.005-1.106-1.087-1.535-1.954-3.191-2.66-4.931C5.651.854 5.298.549 4.766.54A111.19 111.19 0 00.84.542C.053.557-.182.94.14 1.653c1.425 3.17 3.012 6.253 5.083 9.061 1.063 1.441 2.284 2.713 3.861 3.615 1.787 1.022 3.712 1.33 5.738 1.235.949-.045 1.234-.291 1.278-1.237.03-.647.103-1.29.422-1.872.313-.57.788-.68 1.335-.325.273.178.504.404.722.643.534.584 1.049 1.186 1.603 1.75.695.708 1.519 1.126 2.555 1.041h4.009c.646-.041.98-.833.61-1.554-.26-.505-.603-.955-.965-1.39z" fill="#E0E0E0"/></svg>