<svg width="25" height="25" fill="none" xmlns="http://www.w3.org/2000/svg"><path d="M22.475 12.918a2.548 2.548 0 00-.802-1.38 2.554 2.554 0 00-1.43-.656c-1.711-.187-4.292-.28-7.743-.28-3.45 0-6.027.093-7.729.28a2.531 2.531 0 00-1.437.655 2.65 2.65 0 00-.81 1.381c-.241 1.08-.362 2.707-.362 4.883 0 2.214.121 3.841.363 4.883.12.549.388 1.01.802 1.381.414.372.89.586 1.43.642C6.47 24.902 9.05 25 12.5 25s6.032-.098 7.743-.293a2.441 2.441 0 001.423-.642 2.65 2.65 0 00.81-1.38c.24-1.08.362-2.707.362-4.884 0-2.213-.121-3.841-.363-4.883zm-14.411 1.41H6.57v7.937H5.176v-7.938H3.711v-1.31h4.353v1.31zm3.767 7.937h-1.242v-.753c-.502.567-.977.851-1.423.851-.428 0-.698-.172-.81-.516-.074-.223-.11-.563-.11-1.019v-5.454h1.24v5.078c0 .297.005.46.015.488.028.195.125.293.293.293.25 0 .516-.195.795-.586v-5.273h1.242v6.891zm4.743-2.064c0 .678-.042 1.144-.125 1.395-.159.511-.489.767-.99.767-.447 0-.88-.256-1.298-.767v.67h-1.242v-9.25h1.242v3.028c.4-.503.832-.754 1.297-.754.502 0 .832.26.99.782.084.241.126.702.126 1.38v2.749zm4.715-1.144h-2.497v1.213c0 .642.214.963.642.963.307 0 .493-.167.558-.502.018-.093.028-.377.028-.851h1.27v.181c0 .456-.01.726-.029.81a1.69 1.69 0 01-.293.753c-.334.493-.837.739-1.507.739-.641 0-1.143-.237-1.506-.711-.27-.345-.405-.884-.405-1.619V17.62c0-.735.13-1.274.39-1.619.364-.474.861-.711 1.494-.711.623 0 1.116.237 1.479.711.251.345.376.884.376 1.619v1.437z" fill="#E0E0E0"/><path d="M14.788 16.42c-.214 0-.423.103-.628.307v4.199c.205.205.414.307.628.307.362 0 .544-.312.544-.935v-2.943c0-.624-.181-.935-.544-.935zm4.632 0c-.418 0-.627.316-.627.948v.642h1.255v-.642c0-.632-.209-.948-.627-.948zM7.256 5.566v3.781h1.395v-3.78L10.339 0H8.916l-.949 3.67L6.977 0H5.498c.26.781.563 1.65.907 2.609.437 1.283.72 2.27.851 2.957zm4.951 3.879c.642 0 1.135-.237 1.479-.712.26-.344.39-.893.39-1.646V4.646c0-.744-.13-1.289-.39-1.633-.344-.474-.837-.711-1.479-.711-.623 0-1.112.237-1.465.711-.26.344-.39.889-.39 1.633v2.441c0 .744.13 1.293.39 1.646.353.475.842.712 1.465.712zm-.6-5.05c0-.642.2-.963.6-.963.4 0 .6.32.6.962v2.93c0 .651-.2.977-.6.977-.4 0-.6-.326-.6-.977v-2.93zm4.437 5.05c.465 0 .945-.288 1.437-.865v.767h1.27V2.386h-1.27V7.7c-.279.4-.544.6-.795.6-.168 0-.265-.102-.293-.307-.01-.019-.014-.182-.014-.488v-5.12h-1.27v5.497c0 .474.038.822.112 1.046.121.344.395.516.823.516z" fill="#E0E0E0"/></svg>